<?xml version="1.0" encoding="utf-8"?>
<!-- Generator: Adobe Illustrator 21.0.0, SVG Export Plug-In . SVG Version: 6.00 Build 0)  -->
<svg version="1.1" id="MESG-Brandmark" xmlns="http://www.w3.org/2000/svg" xmlns:xlink="http://www.w3.org/1999/xlink" x="0px"
	 y="0px" viewBox="0 0 1250 1250" style="enable-background:new 0 0 1250 1250;" xml:space="preserve">
<style type="text/css">
	.st0{fill:#491E8C;}
	.st1{fill:#FFFFFF;}
	.st2{opacity:0.4;fill:#FFFFFF;enable-background:new    ;}
</style>
<rect y="0" class="st0" width="1250" height="1250"/>
<g id="Brandmark">
	<circle id="Core-1_1_" class="st1" cx="625" cy="412.7" r="76.3"/>
	<circle id="Core-2_1_" class="st1" cx="401.7" cy="574.9" r="76.3"/>
	<circle id="Core-3_1_" class="st1" cx="848.2" cy="574.9" r="76.3"/>
	<circle id="Core-4_1_" class="st1" cx="487" cy="837.3" r="76.3"/>
	<circle id="Core-5_1_" class="st1" cx="762.9" cy="837.3" r="76.3"/>
	<path id="Center" class="st2" d="M666.2,837.3c0-25.8,10.1-50.2,28.3-68.4c18.2-18.2,42.6-28.3,68.4-28.3c24.2,0,47,8.9,64.9,25
		c16.5-28.2,27.2-60.2,30.7-94.4c-3.3,0.4-6.8,0.5-10.2,0.5c-25.8,0-50.2-10.1-68.4-28.3c-18.2-18.2-28.3-42.6-28.3-68.4
		s10.1-50.2,28.3-68.4c6.1-6.1,12.8-11.3,20.1-15.5c-22.1-24.8-49.5-44.8-80.2-58.3c-3.8,18.2-12.8,35-26.3,48.5
		c-18.2,18.2-42.6,28.3-68.4,28.3s-50.2-10.1-68.4-28.3C543,467.8,534,451,530.2,432.7c-30.7,13.6-58,33.6-80.2,58.3
		c7.2,4.2,14,9.4,20.1,15.5c18.2,18.2,28.3,42.6,28.3,68.4s-10.1,50.2-28.3,68.4c-18.2,18.2-42.6,28.3-68.4,28.3
		c-3.5,0-6.9-0.2-10.2-0.5c3.4,34.1,14.2,66.1,30.7,94.4c17.8-16.1,40.7-25,64.9-25c25.8,0,50.2,10.1,68.4,28.3
		c18.2,18.2,28.3,42.6,28.3,68.4c0,13.8-2.9,27.2-8.4,39.5c16,3.5,32.6,5.3,49.6,5.3c17,0,33.6-1.8,49.6-5.3
		C669,864.6,666.2,851.2,666.2,837.3z"/>
	<path id="Circles" class="st2" d="M1113.3,462.9c-14.5-34.3-35.3-65.1-61.7-91.5c-26.4-26.4-57.2-47.2-91.5-61.7
		c-23.3-9.9-47.9-16.6-73-20c-14.1-29.9-33.2-57-56.7-80.5c-26.4-26.4-57.2-47.2-91.5-61.7c-35.5-15-73.2-22.6-112-22.6
		s-76.5,7.7-112,22.7c-34.3,14.5-65.1,35.3-91.5,61.7c-23.3,23.3-42.4,50.2-56.4,79.9c-26.6,3.2-52.7,10.1-77.4,20.6
		c-34.3,14.5-65,35.2-91.5,61.7c-26.4,26.4-47.2,57.2-61.7,91.5c-15,35.4-22.6,73.1-22.6,111.9s7.6,76.5,22.6,112
		c14.5,34.3,35.3,65.1,61.7,91.5c1.8,1.8,3.8,3.6,6,5.7c-3.3,17.4-4.9,35.3-4.9,53.2c0,38.8,7.6,76.5,22.6,112
		c14.5,34.3,35.3,65.1,61.7,91.5s57.2,47.2,91.5,61.7c35.5,15,73.2,22.6,112,22.6c38.8,0,76.5-7.6,112-22.6
		c8.7-3.7,17.5-7.9,25.9-12.6c8.4,4.6,17.2,8.9,25.9,12.6c35.5,15,73.2,22.6,112,22.6s76.5-7.6,112-22.6
		c34.3-14.5,65.1-35.3,91.5-61.7c26.4-26.4,47.2-57.2,61.7-91.5c15-35.5,22.6-73.2,22.6-112c0-18-1.6-35.8-4.9-53.2
		c2.2-2.1,4.1-3.9,6-5.7c26.4-26.4,47.2-57.2,61.7-91.5c15-35.5,22.6-73.2,22.6-112C1135.9,536.1,1128.3,498.4,1113.3,462.9z
		 M1091.5,677.6c-12.5,29.5-30,56.2-52.2,79.4c-3.1-10.7-6.9-21.4-11.3-31.7c-14.5-34.3-35.3-65.1-61.7-91.5
		c-8.7-8.7-18-16.8-27.7-24.3c-2.8,7.5-6.7,14.6-11.4,21.2c7.8,6.2,15.3,12.9,22.4,19.9c24.3,24.3,43.3,52.4,56.6,83.9
		c5.6,13.3,10.1,27.1,13.6,41.1c-20.6,17.7-43.7,31.9-68.8,42.5c-29,12.3-59.7,19.2-91.3,20.5c-0.1,8.2-1.2,16.1-3.3,23.8
		c36-1,70.9-8.6,103.8-22.5c23.1-9.7,44.7-22.5,64.4-37.8c1.5,11.6,2.3,23.3,2.3,35.1c0,35.7-7,70.2-20.7,102.7
		c-13.3,31.4-32.3,59.7-56.6,83.9c-24.3,24.3-52.4,43.3-83.9,56.6c-32.6,13.8-67.1,20.7-102.7,20.7c-35.6,0-70.2-7-102.7-20.7
		c-3.8-1.6-7.7-3.3-11.5-5.2c15-10.1,29-21.8,41.8-34.6c26.4-26.4,47.2-57.2,61.7-91.5c2.1-5,4.1-10.1,6-15.3
		c-8.2-0.4-16.1-1.8-23.7-4.1c-1.3,3.5-2.7,7-4,10.3c-13.3,31.4-32.4,59.7-56.6,83.9c-14.8,14.8-31.2,27.7-48.7,38.5
		c-17.6-10.8-34-23.8-48.7-38.5c-24.3-24.3-43.3-52.4-56.6-83.9c-1.3-3.3-2.8-6.7-4-10.3c-7.6,2.3-15.5,3.8-23.7,4.1
		c1.8,5.2,3.8,10.3,6,15.3c14.5,34.3,35.3,65.1,61.7,91.5c12.8,12.8,26.9,24.5,41.8,34.6c-3.8,1.8-7.7,3.5-11.5,5.2
		c-32.6,13.8-67.1,20.7-102.7,20.7s-70.3-7-102.8-20.8c-31.4-13.3-59.7-32.4-83.9-56.6c-24.3-24.3-43.3-52.4-56.6-83.9
		c-13.8-32.6-20.7-67.1-20.7-102.7c0-11.8,0.8-23.6,2.3-35.1c19.7,15.3,41.4,28,64.4,37.8c33,14,67.9,21.5,103.8,22.5
		c-2.1-7.7-3.2-15.7-3.3-23.8c-31.6-1.3-62.3-8.2-91.3-20.5c-25-10.6-48.1-24.9-68.8-42.5c3.3-14,7.9-27.7,13.6-41.1
		c13.3-31.4,32.3-59.7,56.6-83.9c7-7,14.5-13.7,22.4-19.9c-4.7-6.6-8.4-13.7-11.4-21.2c-9.7,7.5-19.1,15.7-27.7,24.3
		c-26.4,26.4-47.2,57.2-61.7,91.5c-4.3,10.4-8.2,21-11.3,31.7c-22.2-23.2-39.7-49.9-52.2-79.4C145,645,138,610.4,138,574.8
		c0-35.6,7-70.2,20.7-102.7c13.3-31.4,32.3-59.7,56.6-83.9c24.3-24.3,52.4-43.3,83.9-56.6c18.5-7.8,37.8-13.5,57.5-16.9
		c-11.4,31.4-17.1,64.3-17.1,98.1c0,27.2,3.8,54.1,11.3,80c6.8-4.3,14.1-7.6,21.8-10.1c-6.2-22.6-9.3-46.1-9.3-69.9
		c0-35.1,6.7-69.2,20.1-101.3c6.2-0.4,12.4-0.6,18.6-0.6c35.7,0,70.2,7,102.7,20.7c15,6.3,29.4,14.1,43,23.1c2.8-3.6,5.7-7.1,9-10.4
		c2.5-2.5,5-4.8,7.7-6.9c-15.8-10.9-32.9-20.2-50.5-27.6c-35.5-15-73.2-22.6-112-22.6c-2.3,0-4.7,0.1-7,0.1
		c12.1-22.4,27.5-43,45.6-61.2c24.3-24.3,52.4-43.3,83.9-56.6c32.4-13.7,67-20.7,102.7-20.7c35.6,0,70.2,7,102.7,20.7
		c31.4,13.3,59.7,32.3,83.9,56.6c18.2,18.2,33.6,38.8,45.8,61.3c-3.8-0.1-7.5-0.2-11.3-0.2c-38.8,0-76.5,7.6-112,22.6
		c-17.7,7.5-34.7,16.8-50.5,27.6c2.6,2.2,5.3,4.5,7.7,6.9c3.3,3.3,6.3,6.7,9,10.4c13.6-9,28-16.8,43-23.1
		c32.6-13.8,67.1-20.7,102.7-20.7c7.6,0,15.3,0.4,22.9,1c13.3,32,19.9,65.9,19.9,100.9c0,24.2-3.3,48.2-9.7,71.2
		c7.6,2.8,14.8,6.5,21.4,11.1c7.9-26.5,11.9-54.1,11.9-82.2c0-33.4-5.7-66.1-16.8-97.3c18.2,3.5,36,8.9,53.1,16.1
		c31.4,13.3,59.7,32.3,83.9,56.6c24.3,24.3,43.3,52.4,56.6,83.9c13.8,32.6,20.7,67.1,20.7,102.7
		C1112.2,610.5,1105.2,645.1,1091.5,677.6z"/>
</g>
</svg>
